<!-- panel sdntalun2 — Logo singkat -->
<svg xmlns="http://www.w3.org/2000/svg" width="620" height="140" viewBox="0 0 620 140" role="img" aria-label="panel sdntalun2 logo">
  <defs>
    <style>
      .blue{ fill:#0044cc; }
      .bg{ fill:#fff; }
      .txt{
        font: 900 58px/1.1 "Impact", "Anton", "Oswald", "Arial Black", sans-serif;
        letter-spacing: 1px;
        text-transform: uppercase;
      }
    </style>
  </defs>

  <!-- Emblem -->
  <g transform="translate(20,20)">
    <circle cx="50" cy="50" r="50" class="bg"/>
    <!-- Laravel-ish L -->
    <path class="blue" d="M68 22h-18a4 4 0 0 0-4 4v36h-8a4 4 0 0 0-4 4v12h12a8 8 0 0 0 8-8V38h14a4 4 0 0 0 4-4V26a4 4 0 0 0-4-4z"/>
    <!-- CodeIgniter-ish Flame -->
    <path class="blue" d="M56 26c-8 8-10 15-7 21 3 6 1 11-5 15 11-1 18-6 20-14 1-3 1-6 0-10 5 4 8 9 8 14 0 10-9 18-24 20 22 5 38-7 38-22 0-9-6-18-16-24-4-3-9-1-14 0z" opacity=".28"/>
  </g>

  <!-- Wordmark -->
  <text x="140" y="82" class="txt blue">panel sdntalun2</text>
</svg>
